# xmcd
#
# Track frame offsets: 
#        150
#        24169
#        38341
#        52512
#        72328
#        84148
#        99007
#        111332
#        123957
#        135719
#        149129
#        165714
#        177090
#        197437
#        223326
#        245805
#        262042
#
# Disc length: 3791 seconds
#
# Revision: 0
# Processed by: cddbd v1.5.2PL0 Copyright (c) Steve Scherf et al.
# Submitted via: ExactAudioCopy v0.95b4
#
DISCID=e50ecd11
DTITLE=Various Artist - The Best Blues ...Ever!
DYEAR=2012
DGENRE=Blues
TTITLE0=B.B. King - The Thrill Is Gone
TTITLE1=John Mayall Feat. Eric Clapton - Ramblin' On My Mind
TTITLE2=Albert King - Laundromat Blues
TTITLE3=The Paul Butterfield Blues Band - Blues With A Feeling
TTITLE4=Freddie King - Hide Away
TTITLE5=The Animals - Boom Boom
TTITLE6=Canned Heat and John Lee Hooker - Whiskey And Wimmen'
TTITLE7=Canned Heat - Let's Work Together
TTITLE8=Otis Rush and His Band - All Your Love (I Miss Loving)
TTITLE9=T-Bone Walker - T-Bone Shuffle
TTITLE10=Manfred Mann - Stormy Monday Blues
TTITLE11=Jeff Beck and Rod Stewart - You Shook Me
TTITLE12=John Mayall - Laurel Canyon Home
TTITLE13=Ten Years After - Hear Me Calling
TTITLE14=The Allman Brothers Band - One Way Out
TTITLE15=Hound Dog Taylor - Give Me Back My Wig
TTITLE16=Willie Dixon - Spoonful
EXTD=
EXTT0=
EXTT1=
EXTT2=
EXTT3=
EXTT4=
EXTT5=
EXTT6=
EXTT7=
EXTT8=
EXTT9=
EXTT10=
EXTT11=
EXTT12=
EXTT13=
EXTT14=
EXTT15=
EXTT16=
PLAYORDER=
